<?xml version="1.0" standalone="no"?>
<!DOCTYPE svg PUBLIC "-//W3C//DTD SVG 20010904//EN"
 "http://www.w3.org/TR/2001/REC-SVG-20010904/DTD/svg10.dtd">
<svg version="1.0" xmlns="http://www.w3.org/2000/svg"
 width="626.000000pt" height="626.000000pt" viewBox="0 0 626.000000 626.000000"
 preserveAspectRatio="xMidYMid meet">
<metadata>
Created by potrace 1.14, written by Peter Selinger 2001-2017
</metadata>
<g transform="translate(0.000000,626.000000) scale(0.100000,-0.100000)"
fill="#000000" stroke="none">
<path d="M3144 5819 c-10 -17 13 -36 27 -22 12 12 4 33 -11 33 -5 0 -12 -5
-16 -11z"/>
<path d="M3417 5704 c-13 -13 -7 -24 14 -24 11 0 19 5 17 12 -5 14 -22 21 -31
12z"/>
<path d="M3261 5536 c-12 -14 -5 -26 16 -26 15 0 18 26 4 34 -5 3 -14 0 -20
-8z"/>
<path d="M3300 5480 c0 -5 5 -10 10 -10 6 0 10 5 10 10 0 6 -4 10 -10 10 -5 0
-10 -4 -10 -10z"/>
<path d="M3954 5165 c-33 -50 20 -104 71 -71 30 20 33 56 7 79 -27 24 -59 21
-78 -8z"/>
<path d="M3815 5016 c-20 -15 -15 -43 10 -52 18 -7 45 12 45 32 0 22 -35 35
-55 20z"/>
<path d="M2808 4993 c7 -3 16 -2 19 1 4 3 -2 6 -13 5 -11 0 -14 -3 -6 -6z"/>
<path d="M2995 4990 c-134 -6 -334 -44 -520 -97 -66 -19 -127 -36 -135 -38
-61 -14 -273 -118 -341 -167 -25 -18 -117 -107 -204 -198 -86 -91 -161 -166
-166 -168 -5 -2 -9 -10 -9 -17 0 -8 -4 -16 -9 -19 -7 -5 -128 32 -194 59 -17
7 -17 -10 -11 -357 l7 -365 -99 13 c-54 8 -108 15 -118 16 -22 3 -35 -29 -91
-234 -20 -73 -41 -141 -46 -150 -11 -22 -12 -58 0 -58 4 0 11 -22 14 -49 7
-59 81 -289 102 -317 17 -23 19 -12 5 35 -17 61 -4 43 24 -31 15 -40 34 -86
43 -101 8 -16 13 -30 11 -32 -10 -11 -360 -125 -381 -125 -13 0 -35 -8 -48
-19 -13 -10 -62 -30 -107 -46 -46 -15 -80 -31 -75 -35 4 -4 136 -101 293 -215
157 -114 290 -214 297 -222 6 -8 17 -38 23 -66 13 -56 38 -90 83 -113 l27 -15
0 -130 c0 -112 2 -130 15 -125 19 7 21 -44 3 -62 -10 -10 -10 -17 -1 -31 7
-11 13 -49 14 -85 2 -60 4 -66 23 -66 36 0 46 -42 46 -197 0 -120 2 -143 15
-143 13 0 15 24 15 155 0 152 0 156 23 164 12 5 25 7 30 4 4 -2 4 -49 1 -104
-5 -66 -4 -99 3 -99 18 0 23 28 23 124 l0 92 46 17 c25 9 50 15 54 12 16 -10
25 -86 25 -227 0 -202 18 -201 25 2 3 85 8 148 12 140 3 -8 23 -64 44 -124 29
-84 37 -122 36 -172 0 -35 3 -64 8 -64 5 0 11 -8 13 -17 3 -10 5 12 6 50 1 60
3 67 21 67 19 0 20 -7 20 -106 0 -80 3 -105 13 -102 8 3 14 38 17 107 l5 103
38 34 c46 39 126 70 132 51 3 -7 6 -52 7 -101 2 -59 7 -91 15 -93 9 -3 13 24
15 104 l3 108 35 17 c19 9 46 19 59 23 23 7 23 6 20 -56 -3 -43 0 -63 9 -66 9
-4 12 13 12 62 l0 66 36 15 c33 14 44 13 132 -6 54 -12 104 -24 112 -27 8 -4
21 -5 29 -4 24 4 31 -22 30 -114 -1 -59 2 -90 10 -93 8 -3 11 26 11 98 0 101
0 102 23 96 12 -3 30 -6 39 -6 15 0 18 -13 20 -87 4 -113 22 -116 26 -5 l3 83
32 -3 c26 -2 33 -8 35 -30 3 -24 6 -27 33 -21 27 5 29 4 29 -28 0 -19 5 -41
10 -49 7 -11 10 3 10 48 l0 62 45 0 c40 0 46 -3 61 -32 l16 -32 20 27 20 27
146 -1 c81 0 155 2 164 6 33 13 43 -30 48 -225 4 -150 8 -185 19 -185 11 0 14
33 15 178 l1 179 28 24 c20 17 39 23 67 22 39 -1 40 -2 40 -40 0 -27 4 -38 15
-38 11 0 15 12 15 49 0 42 3 51 22 57 16 5 27 0 41 -17 18 -22 19 -35 12 -156
-8 -144 0 -236 19 -230 6 2 11 21 10 43 0 21 -1 62 -1 89 -2 91 8 230 18 240
5 5 9 -9 9 -38 0 -35 4 -47 15 -47 11 0 15 13 15 54 0 30 4 58 10 61 6 3 7 -1
4 -9 -3 -9 -1 -16 5 -16 6 0 11 11 11 25 0 14 5 25 10 25 6 0 10 -20 10 -45 0
-33 4 -45 15 -45 11 0 15 13 15 54 l0 53 61 18 c37 10 75 14 95 10 l34 -6 1
-67 c3 -166 15 -322 24 -320 6 2 9 70 6 190 l-4 187 109 -34 c60 -18 130 -39
155 -46 25 -7 59 -24 75 -37 29 -25 29 -27 33 -149 2 -87 6 -123 15 -120 7 2
13 51 18 138 6 117 13 184 18 184 1 0 3 9 5 20 5 40 46 229 51 236 2 4 27 1
55 -7 74 -22 82 -11 10 15 -34 12 -59 26 -56 31 3 5 11 7 18 5 7 -2 57 -18
111 -36 90 -29 197 -42 213 -25 9 9 -8 26 -28 26 -17 0 -19 5 -14 58 10 94 15
122 25 122 6 0 10 63 10 153 l0 154 50 23 c52 24 63 38 16 21 -14 -6 -26 -7
-26 -3 1 8 151 112 163 112 4 0 7 -22 7 -50 0 -27 5 -50 10 -50 6 0 10 31 10
74 0 73 0 74 40 110 22 20 36 36 31 36 -5 0 -14 -7 -21 -16 -18 -21 -50 -37
-50 -25 0 8 332 264 467 360 18 13 32 26 30 28 -2 2 -60 24 -128 48 -68 25
-148 61 -177 81 -30 19 -56 34 -58 31 -2 -2 7 -10 21 -17 41 -22 28 -29 -20
-11 -48 17 -56 27 -27 34 15 4 15 5 0 6 -13 1 -18 13 -21 49 -3 46 -3 46 -5
-10 -1 -32 -4 -58 -6 -58 -2 0 -34 9 -70 20 -61 19 -65 22 -55 41 6 11 24 25
40 31 21 7 31 19 38 46 42 169 64 249 72 262 12 21 11 13 -6 -50 -8 -30 -14
-80 -13 -110 l1 -55 6 62 c6 65 21 97 21 46 0 -47 11 -93 21 -87 5 3 9 44 9
92 0 48 7 116 16 152 9 41 13 83 9 112 -6 45 -5 47 24 63 41 21 39 35 -3 35
-33 0 -35 3 -52 53 -9 28 -35 96 -57 150 l-40 97 -41 -1 c-22 0 -79 -4 -126
-8 -75 -8 -88 -6 -112 10 -14 11 -32 19 -38 19 -10 0 -11 75 -6 351 l8 350
-39 -7 c-21 -4 -56 -13 -77 -21 -22 -7 -40 -12 -41 -11 -1 2 -22 37 -48 79
-26 42 -47 82 -47 88 0 7 -4 10 -8 7 -5 -3 -46 34 -93 81 -155 159 -315 261
-521 332 -268 92 -593 129 -973 111z m358 -204 c7 -17 -13 -26 -53 -26 -30 0
-45 13 -35 30 10 16 82 12 88 -4z m-193 -6 c0 -12 -34 -30 -58 -30 -22 0 -46
23 -35 33 10 11 93 8 93 -3z m359 1 c23 -15 -5 -23 -54 -15 -25 3 -48 10 -51
15 -7 12 87 11 105 0z m-502 -18 c6 -16 -39 -27 -73 -19 -22 6 -24 9 -13 22
15 18 80 15 86 -3z m233 2 c15 -18 92 -20 120 -3 16 10 24 10 41 0 13 -8 46
-12 87 -11 57 3 72 0 98 -20 37 -27 112 -40 124 -21 11 18 99 -5 118 -31 22
-31 71 -52 110 -45 37 6 115 -27 143 -60 8 -9 41 -29 74 -44 103 -47 301 -249
374 -384 23 -41 23 -45 8 -61 -29 -28 -21 -72 19 -111 42 -39 50 -67 60 -226
8 -126 4 -136 -79 -192 -84 -55 -97 -56 -50 -2 52 59 58 86 50 235 -13 239
-73 393 -220 564 -118 137 -340 246 -656 323 -184 45 -314 60 -404 47 -37 -5
-70 -6 -73 -1 -3 4 -26 8 -52 7 l-47 -1 48 -13 c57 -16 61 -19 54 -40 -7 -18
-50 -20 -96 -4 -32 11 -41 33 -18 43 6 3 3 4 -8 3 -14 -2 -19 -9 -17 -26 2
-19 0 -22 -12 -12 -8 6 -26 10 -40 7 -19 -3 -26 0 -26 12 0 13 -3 12 -16 -6
-10 -15 -25 -22 -49 -22 -39 0 -53 14 -28 29 20 12 13 14 -11 5 -41 -16 -2
-59 52 -57 l37 2 -35 -10 c-19 -6 -41 -16 -49 -24 -19 -18 -5 -52 27 -64 l27
-9 -30 -2 c-26 0 -28 -2 -14 -13 13 -10 14 -16 5 -32 -6 -11 -15 -23 -20 -27
-6 -4 -5 -12 2 -21 11 -12 7 -13 -28 -4 -34 10 -43 9 -57 -6 -15 -15 -16 -20
-5 -38 11 -17 11 -20 0 -14 -10 6 -11 5 -1 -5 13 -14 19 -17 69 -26 25 -5 35
-1 48 17 16 23 16 23 16 2 0 -12 -6 -24 -12 -26 -7 -3 2 -6 20 -6 19 -1 32 4
32 12 0 8 4 7 10 -3 8 -12 10 -11 10 7 0 21 2 21 28 7 32 -17 56 -18 85 -3 21
10 21 10 3 -5 -11 -9 -22 -16 -25 -16 -3 0 -6 -17 -5 -37 1 -21 5 -36 9 -35 9
4 25 -18 25 -35 0 -7 -5 -13 -11 -13 -5 0 -7 5 -3 12 4 7 3 8 -4 4 -16 -10
-15 -36 1 -37 6 0 1 -5 -13 -11 -23 -10 -23 -12 -5 -15 19 -3 20 -9 15 -86 -3
-45 -2 -83 2 -85 10 -5 -2 -60 -22 -102 -20 -42 -16 -66 11 -73 20 -5 41 14
21 21 -15 5 37 62 57 62 10 0 6 -5 -9 -13 -30 -15 -37 -55 -17 -97 11 -21 12
-30 3 -33 -6 -2 2 -2 17 0 31 5 57 -11 57 -35 0 -15 44 -62 59 -62 4 0 13 -17
19 -37 17 -55 25 -64 66 -73 31 -7 35 -6 25 6 -9 11 -7 14 9 14 11 0 30 12 41
26 12 15 21 22 21 17 0 -5 -5 -14 -11 -20 -8 -8 -4 -18 12 -37 19 -22 31 -26
64 -25 23 2 46 0 52 -4 14 -9 25 35 13 47 -6 6 -10 17 -10 26 0 9 5 5 13 -10
27 -55 91 -31 85 31 -2 21 0 35 5 32 5 -3 7 -24 6 -47 -3 -44 -15 -54 -61 -55
-31 -1 -36 -12 -13 -31 12 -10 15 -9 15 5 0 13 5 16 23 11 12 -3 28 -6 34 -6
7 0 12 -3 12 -7 -1 -5 -1 -23 0 -40 1 -30 4 -33 34 -34 29 -1 26 -3 -24 -19
-31 -10 -109 -30 -175 -43 -169 -36 -344 -76 -380 -87 -49 -16 -520 -12 -705
5 -458 43 -692 98 -769 180 -24 25 -25 33 -23 129 1 120 24 252 58 342 27 72
25 83 -4 27 -23 -44 -28 -28 -6 23 20 49 88 134 202 254 111 117 215 208 221
192 8 -25 114 35 109 62 -1 6 14 11 33 12 49 2 136 41 155 71 13 20 19 22 31
12 18 -14 84 2 104 26 16 19 7 19 -31 -1 -17 -8 -38 -14 -47 -12 -26 6 34 42
72 44 17 1 39 5 49 9 12 5 17 3 17 -8 0 -9 9 -18 20 -22 25 -8 94 11 110 30 7
8 27 15 44 15 17 0 53 12 79 26 39 20 51 23 63 13 12 -10 12 -14 2 -21 -9 -7
-7 -8 7 -4 11 3 34 8 50 12 17 4 39 15 51 26 19 17 22 17 34 3 18 -21 73 -19
101 5 29 23 72 26 89 5z m438 -16 c22 -9 29 -24 14 -33 -11 -7 -83 12 -99 26
-32 26 20 30 85 7z m-830 -1 c-6 -17 -80 -40 -92 -28 -6 6 2 15 25 24 41 18
72 20 67 4z m-128 -39 c0 -12 -62 -39 -90 -39 -39 0 -21 29 28 43 48 15 62 14
62 -4z m1207 -24 c31 -21 29 -35 -6 -35 -29 0 -81 33 -81 52 0 14 57 2 87 -17z
m-423 -6 c74 -19 31 -27 -84 -16 -52 4 -114 9 -137 10 -44 2 -45 12 -3 20 39
8 170 0 224 -14z m-166 -31 c11 -9 10 -14 -1 -25 -16 -17 -60 -9 -78 14 -26
31 43 41 79 11z m-364 -26 c3 -5 -2 -19 -10 -31 -19 -27 -77 -26 -82 0 -5 25
79 52 92 31z m691 -2 c6 -10 -29 -50 -44 -50 -20 0 -41 13 -41 26 0 26 71 47
85 24z m129 -10 c5 -5 6 -16 3 -25 -8 -18 -52 -12 -77 12 -13 12 -13 15 0 23
16 11 59 5 74 -10z m-1424 -4 c0 -11 -70 -46 -93 -46 -20 0 -3 22 31 39 44 24
62 26 62 7z m794 -5 c10 -15 -31 -43 -60 -39 -40 4 -41 25 -2 37 44 12 56 13
62 2z m1001 -27 c27 -17 33 -34 13 -34 -18 0 -99 55 -92 63 7 7 45 -7 79 -29z
m-825 -43 c0 -26 -29 -54 -47 -47 -8 3 -17 6 -19 6 -10 0 -3 25 13 42 22 24
53 24 53 -1z m-1146 -10 c6 -10 -27 -34 -61 -45 -36 -12 -28 19 10 38 37 18
44 19 51 7z m1274 -11 c36 -22 35 -40 -2 -40 -30 0 -72 33 -62 48 10 17 26 15
64 -8z m461 -14 c9 -10 8 -16 -4 -26 -23 -19 -95 6 -81 29 10 16 71 14 85 -3z
m-944 -21 c0 -24 -48 -34 -71 -14 -29 24 -17 40 29 37 34 -2 42 -7 42 -23z
m275 -6 c0 -25 -36 -60 -55 -53 -24 9 -18 40 12 62 31 23 43 20 43 -9z m459
12 c26 -17 -6 -43 -48 -39 -41 3 -45 17 -10 35 29 15 39 16 58 4z m-661 -38
c-10 -2 -26 -2 -35 0 -10 3 -2 5 17 5 19 0 27 -2 18 -5z m149 -47 c22 -6 32
-3 50 18 18 22 31 26 73 26 30 0 72 -9 100 -21 27 -12 56 -19 64 -16 11 4 9
-3 -6 -28 -16 -29 -23 -33 -38 -25 -28 15 -30 13 -31 -22 l-1 -33 -7 30 c-7
35 -41 55 -94 55 -30 0 -39 -5 -46 -22 -7 -19 -8 -20 -14 -3 -4 9 -2 24 5 33
11 13 10 14 -9 3 -13 -6 -23 -18 -23 -26 0 -20 -7 -19 -32 5 -14 13 -30 18
-42 15 -18 -5 -19 -4 -6 7 9 7 14 22 13 33 -3 18 -2 18 6 -1 5 -12 22 -25 38
-28z m1023 17 c24 -31 23 -66 -2 -71 -21 -4 -54 57 -45 82 9 23 23 20 47 -11z
m-1356 -5 c14 -23 -5 -42 -33 -33 -24 7 -51 32 -51 46 0 17 72 5 84 -13z m196
12 c12 -7 12 -13 4 -27 -15 -25 -40 -28 -70 -8 -20 13 -23 19 -13 31 13 16 57
18 79 4z m50 -9 c0 -3 -4 -12 -9 -19 -6 -10 -10 -7 -13 11 -4 18 -1 24 9 20 7
-3 13 -8 13 -12z m979 0 c8 -5 11 -16 7 -26 -5 -14 -13 -16 -38 -11 -33 6 -58
23 -58 37 0 12 71 11 89 0z m-546 -33 c8 -29 -9 -58 -34 -58 -27 0 -34 25 -15
55 20 31 42 32 49 3z m-418 -8 c3 -5 1 -10 -4 -10 -6 0 -11 5 -11 10 0 6 2 10
4 10 3 0 8 -4 11 -10z m247 -18 c17 -17 1 -42 -25 -42 -26 0 -77 35 -77 52 0
13 87 5 102 -10z m-216 -1 c-4 -5 -1 -11 5 -13 7 -2 -5 -4 -26 -4 l-39 0 30
13 c36 15 36 15 30 4z m782 -13 c2 -12 -5 -19 -24 -24 -31 -8 -57 5 -62 30 -3
14 3 17 40 14 31 -2 44 -8 46 -20z m-242 -12 c15 -12 17 -18 8 -33 -20 -31
-94 -5 -94 34 0 18 61 17 86 -1z m-613 -16 c-3 -12 2 -29 12 -40 10 -11 14
-20 8 -20 -15 0 -36 47 -30 64 9 23 16 20 10 -4z m131 -6 c4 -16 2 -32 -4 -38
-8 -8 -9 -6 -4 7 4 11 0 25 -11 37 -15 17 -16 20 -3 20 9 0 19 -12 22 -26z
m-34 1 c10 -12 10 -18 0 -30 -7 -8 -18 -15 -25 -15 -19 0 -66 40 -60 51 10 15
71 10 85 -6z m949 -20 c16 -16 7 -35 -17 -35 -25 0 -62 28 -62 46 0 12 7 14
33 9 17 -4 38 -13 46 -20z m-656 -2 c-7 -2 -19 -2 -25 0 -7 3 -2 5 12 5 14 0
19 -2 13 -5z m-69 -39 c3 -8 2 -12 -4 -9 -6 3 -10 10 -10 16 0 14 7 11 14 -7z
m109 4 c7 -23 -5 -38 -30 -38 -32 0 -63 17 -63 35 0 19 86 21 93 3z m493 4
c29 -19 46 -94 24 -107 -6 -4 -17 -2 -24 4 -26 22 -68 90 -61 100 7 13 45 14
61 3z m-693 -9 c-7 -2 -19 -2 -25 0 -7 3 -2 5 12 5 14 0 19 -2 13 -5z m1015
-23 c35 -21 43 -56 15 -67 -20 -8 -63 39 -63 68 0 24 7 24 48 -1z m-993 -4
c23 -17 13 -46 -15 -46 -48 0 -82 43 -42 53 30 8 38 7 57 -7z m363 -48 c4 -35
-29 -56 -52 -32 -19 19 -20 36 -4 52 21 21 53 10 56 -20z m30 -19 c-3 -20 -5
-19 -9 9 -3 20 -2 29 4 23 5 -5 7 -19 5 -32z m-363 11 c-3 -5 -12 -10 -18 -10
-7 0 -6 4 3 10 19 12 23 12 15 0z m913 -64 c-4 -37 -32 -47 -48 -16 -8 16 -8
30 1 57 l12 37 19 -24 c12 -14 18 -35 16 -54z m-350 2 c6 -6 12 -19 12 -29 0
-30 -54 -25 -79 7 -11 15 -18 31 -15 36 7 10 63 1 82 -14z m-661 -14 c-3 -3
-12 -4 -19 -1 -8 3 -5 6 6 6 11 1 17 -2 13 -5z m401 -18 c19 -18 9 -46 -16
-46 -25 0 -72 37 -72 57 0 12 8 14 37 10 20 -4 43 -13 51 -21z m-337 -7 l24
-20 -30 17 c-39 24 -40 24 -28 24 6 0 21 -9 34 -21z m1237 -22 c3 -32 0 -37
-17 -37 -22 0 -38 38 -27 66 12 30 41 11 44 -29z m-1277 23 c5 0 18 -9 30 -21
16 -16 18 -23 8 -35 -17 -21 -43 -17 -69 10 -25 27 -21 62 6 52 9 -3 20 -6 25
-6z m753 -6 c9 -25 7 -62 -5 -69 -26 -16 -65 56 -42 78 12 13 41 7 47 -9z
m-337 -26 c-3 -7 -5 -2 -5 12 0 14 2 19 5 13 2 -7 2 -19 0 -25z m893 -24 c0
-41 -7 -53 -23 -37 -4 3 -2 12 4 20 7 7 9 26 5 44 -3 18 -2 28 4 24 6 -3 10
-26 10 -51z m-1508 -6 c-13 -13 -24 5 -16 27 7 16 8 16 17 0 6 -11 6 -20 -1
-27z m1296 26 c12 -8 22 -21 22 -29 0 -39 -63 -28 -85 15 -15 30 -15 30 13 30
15 0 38 -7 50 -16z m-861 0 c-3 -3 -12 -4 -19 -1 -8 3 -5 6 6 6 11 1 17 -2 13
-5z m-3 -20 c22 -8 22 -82 1 -90 -35 -14 -57 35 -35 77 12 21 12 21 34 13z
m294 -7 c-1 -3 8 -17 20 -30 28 -29 26 -61 -4 -65 -26 -4 -52 25 -60 68 -7 32
-6 33 20 26 21 -5 26 -4 20 6 -4 7 -4 10 0 6 4 -3 6 -9 4 -11z m-251 -54 c-3
-10 -5 -4 -5 12 0 17 2 24 5 18 2 -7 2 -21 0 -30z m619 13 c15 -62 -23 -89
-51 -36 -20 39 -13 60 19 60 19 0 27 -7 32 -24z m274 -81 c0 -36 -15 -46 -38
-23 -13 13 -16 60 -6 71 16 16 44 -15 44 -48z m-448 28 c24 -28 29 -57 14 -78
-14 -19 -15 -19 -35 -1 -13 12 -21 31 -21 51 0 48 16 58 42 28z m-846 -48 c12
-48 -18 -84 -44 -52 -20 25 -23 55 -7 71 20 19 43 11 51 -19z m34 -28 c0 -13
-7 -32 -16 -43 -15 -18 -15 -18 -5 3 6 12 11 31 11 42 0 12 2 21 5 21 3 0 5
-10 5 -23z m228 7 c29 -20 26 -58 -5 -62 -31 -5 -60 14 -78 48 l-16 30 39 0
c20 0 48 -7 60 -16z m49 -51 c-3 -10 -5 -4 -5 12 0 17 2 24 5 18 2 -7 2 -21 0
-30z m404 -41 c28 -24 20 -52 -16 -52 -24 0 -65 31 -65 48 0 28 49 29 81 4z
m-488 -64 c8 -31 -14 -73 -38 -73 -24 0 -32 43 -15 75 14 27 46 26 53 -2z
m217 3 c15 -29 12 -81 -5 -87 -23 -9 -45 15 -45 50 0 50 30 72 50 37z m-293
-23 c-3 -8 -6 -5 -6 6 -1 11 2 17 5 13 3 -3 4 -12 1 -19z m0 -55 c-3 -10 -5
-4 -5 12 0 17 2 24 5 18 2 -7 2 -21 0 -30z m1500 -84 c7 -14 14 -56 15 -93 l3
-68 -43 -36 c-44 -39 -54 -61 -25 -58 10 0 21 -10 27 -26 14 -39 -9 -88 -45
-95 -20 -4 -29 -12 -29 -25 0 -14 -5 -18 -16 -14 -9 3 -19 6 -22 6 -4 0 -8 10
-9 23 -1 12 -5 39 -9 60 -5 33 -4 39 14 44 22 5 34 52 20 77 -17 30 -27 16
-43 -57 -12 -56 -14 -80 -5 -101 13 -35 10 -39 -24 -30 -15 4 -46 30 -71 61
l-45 55 24 19 c13 10 29 19 36 19 6 0 10 6 7 13 -3 9 -52 11 -216 8 -184 -3
-211 -2 -206 11 3 8 50 30 103 48 125 42 184 69 252 112 73 47 103 38 121 -36
l7 -31 1 36 c1 32 5 37 39 47 20 6 53 23 72 36 41 29 51 28 67 -5z m-1057 -39
c8 -5 11 -10 5 -10 -5 0 -17 5 -25 10 -8 5 -10 10 -5 10 6 0 17 -5 25 -10z
m1417 -112 c-3 -8 -6 -5 -6 6 -1 11 2 17 5 13 3 -3 4 -12 1 -19z m-3429 -8 c2
-6 12 -10 22 -10 10 0 31 -5 46 -10 l27 -11 -34 -30 -34 -30 39 28 c27 19 41
24 44 15 2 -6 8 -9 14 -6 5 4 2 -5 -7 -20 -12 -19 -16 -37 -12 -63 5 -28 3
-33 -5 -25 -14 14 -90 16 -103 3 -9 -8 -155 8 -220 24 -48 11 -94 75 -76 104
9 14 177 45 193 35 4 -3 16 0 25 6 20 12 76 5 81 -10z m244 -62 c26 -8 35 -14
26 -20 -13 -8 47 -12 125 -8 41 2 45 -4 20 -33 -13 -15 -14 -19 -3 -13 8 4 6
1 -4 -8 -49 -40 -77 -68 -72 -73 2 -3 17 4 33 15 26 18 53 31 126 61 44 18 44
14 -3 -35 -25 -25 -40 -45 -35 -44 21 4 24 -1 15 -26 -9 -22 0 -17 52 29 67
58 116 87 145 87 10 0 -6 -14 -35 -31 -65 -37 -63 -47 4 -18 57 25 224 40 224
20 0 -6 -4 -11 -8 -11 -5 0 -27 -16 -50 -36 -60 -51 -53 -97 10 -63 29 16 37
0 10 -21 -35 -29 -108 -53 -137 -46 -15 4 -35 21 -47 41 -26 45 -69 49 -94 9
-11 -16 -14 -28 -8 -32 6 -4 16 -22 23 -39 11 -28 11 -36 -2 -56 -8 -13 -17
-34 -19 -47 -3 -23 -4 -23 -34 15 -39 50 -54 91 -30 82 12 -5 16 0 16 19 0 14
9 44 20 67 18 36 18 39 3 21 -10 -12 -26 -36 -35 -53 -15 -28 -22 -31 -63 -31
-81 0 -136 44 -156 127 -11 40 -73 113 -98 113 -24 0 -20 -37 9 -74 50 -66 81
-137 72 -168 -8 -30 -117 -148 -137 -148 -6 0 -20 18 -30 40 -24 53 -38 64
-63 51 -24 -13 -52 13 -52 49 0 20 2 21 18 9 15 -13 16 -12 4 3 -20 25 -6 54
36 76 22 11 38 27 40 40 4 29 -7 28 -79 -9 -47 -23 -64 -38 -75 -65 -8 -19
-12 -39 -9 -43 3 -5 -2 -11 -10 -15 -9 -3 -19 3 -26 17 -17 32 -18 32 -32 12
-13 -16 -15 -14 -29 29 -8 25 -13 46 -10 46 3 0 18 -12 33 -26 15 -14 32 -23
39 -19 16 10 -2 28 -50 50 -41 19 -58 49 -46 81 7 18 32 16 139 -8 42 -10 47
-13 25 -16 -16 -2 -28 -7 -28 -12 0 -20 22 -20 69 0 69 30 100 24 125 -23 15
-28 25 -37 39 -33 16 4 18 -1 15 -52 -1 -31 3 -66 9 -76 10 -18 11 -18 23 4
16 31 6 87 -30 164 -38 80 -39 118 -4 145 31 24 42 25 96 9z m2193 -14 c33 -4
110 -6 171 -5 94 1 113 -1 118 -15 7 -18 -4 -42 -33 -68 -26 -24 -27 -67 -1
-123 17 -40 18 -43 2 -43 -21 0 -110 42 -137 65 l-20 17 20 -7 c38 -13 67 -16
61 -6 -3 5 -25 12 -49 16 -23 4 -54 14 -69 21 -15 8 -37 14 -50 14 -21 0 -21
1 -5 17 15 15 23 16 62 5 68 -18 74 -15 19 13 -54 27 -90 31 -128 14 -18 -9
-45 -9 -105 0 -73 11 -187 48 -178 58 2 2 26 -6 52 -17 36 -15 51 -18 61 -9 8
6 11 16 7 22 -3 5 -2 7 4 4 6 -4 32 4 59 18 27 13 56 22 64 20 8 -2 42 -7 75
-11z m-1662 -1 c-7 -2 -19 -2 -25 0 -7 3 -2 5 12 5 14 0 19 -2 13 -5z m525 -9
c32 -22 45 -51 53 -118 4 -32 11 -62 16 -67 6 -6 8 2 5 21 -10 67 38 117 88
90 l22 -12 -23 -24 c-12 -13 -19 -27 -16 -31 4 -3 7 -1 7 5 0 7 5 12 11 12 7
0 31 18 54 39 55 51 100 60 172 36 72 -25 111 -50 131 -85 19 -33 37 -33 84 1
34 24 38 24 38 -1 0 -22 -19 -34 -70 -45 -19 -4 -51 -19 -72 -33 -21 -14 -40
-23 -42 -21 -1 2 -10 23 -19 47 -15 38 -15 42 -1 42 8 0 24 -5 36 -11 17 -9
19 -8 16 8 -2 10 -26 29 -58 45 -50 24 -61 26 -119 19 -54 -6 -68 -12 -88 -37
-118 -143 -130 -149 -185 -94 -25 26 -29 36 -25 68 9 73 -53 146 -91 108 -15
-15 -15 -16 1 -16 9 0 16 -5 15 -12 -2 -7 4 -12 12 -13 18 -1 15 -30 -7 -64
-11 -17 -14 -37 -9 -68 5 -41 4 -45 -27 -63 -35 -22 -87 -26 -118 -9 -11 5
-32 28 -48 49 l-29 40 -6 -30 c-8 -42 -43 -57 -85 -36 -43 23 -63 57 -59 103
3 36 6 39 43 46 22 4 57 12 78 16 27 6 37 5 37 -4 0 -13 -40 -34 -68 -36 -9
-1 -1 -5 18 -9 26 -6 39 -5 51 6 8 8 24 14 33 14 17 0 17 -2 2 -25 -20 -30
-13 -32 14 -5 25 25 50 26 50 3 0 -10 8 -28 18 -41 18 -23 18 -22 31 65 10 71
17 93 38 116 30 31 58 34 91 11z m-180 -1 c-49 -2 -127 -2 -175 0 -49 1 -9 3
87 3 96 0 136 -2 88 -3z m933 -24 c8 -16 8 -28 0 -46 -6 -13 -11 -43 -11 -66
0 -42 -13 -77 -22 -61 -16 28 -17 66 -2 98 37 76 -23 91 -102 26 -27 -22 -58
-40 -69 -40 -18 0 -16 3 10 26 98 82 172 107 196 63z m98 -39 c15 -25 15 -25
-5 -7 -11 9 -30 17 -42 17 -12 0 -22 5 -22 11 0 20 53 4 69 -21z m-313 -15
c-10 -8 -24 -11 -30 -8 -6 4 0 10 14 14 36 10 37 10 16 -6z m394 -23 c24 -18
30 -20 18 -6 -16 19 -15 19 70 19 48 0 101 3 117 8 17 4 25 5 18 1 -6 -3 -36
-36 -67 -73 -31 -39 -70 -76 -91 -86 -36 -16 -38 -16 -64 2 -28 21 -56 71 -66
118 l-6 30 15 -30 c17 -35 20 -24 7 23 -11 36 -9 36 49 -6z m555 8 c6 -10 -68
-49 -94 -50 -28 0 16 29 86 59 1 1 5 -4 8 -9z m245 -52 c-1 -14 -34 -58 -44
-58 -14 0 -4 50 12 59 23 14 32 13 32 -1z m-1375 -17 c-8 -14 -102 -47 -155
-55 -68 -11 -37 12 35 25 33 6 71 17 85 25 30 16 43 18 35 5z m775 -61 c-8 -6
-51 -22 -95 -36 -65 -21 -107 -27 -227 -31 l-147 -6 -6 -38 c-6 -37 -8 -39
-45 -39 -61 0 -70 7 -58 41 13 37 5 59 -21 59 -11 0 -23 5 -26 10 -4 7 8 8 37
3 24 -5 131 -8 238 -7 182 0 200 2 270 26 82 28 103 33 80 18z m450 -30 c4 0
11 7 14 16 4 9 9 15 11 12 3 -3 -11 -44 -31 -91 -36 -86 -36 -86 -67 -80 -35
6 -256 87 -300 110 -52 26 -19 26 68 -1 47 -15 93 -30 102 -33 11 -5 14 -3 8
6 -6 10 -3 11 13 2 11 -6 25 -11 31 -11 15 0 14 18 -1 23 -7 2 -6 3 2 2 8 -2
24 -6 35 -10 19 -7 19 -7 3 10 -17 18 -15 20 29 45 40 23 49 25 61 14 7 -8 17
-14 22 -14z m-1965 -29 c-3 -5 -30 -15 -61 -22 -60 -14 -59 -11 -38 -86 6 -20
3 -23 -23 -23 -24 0 -32 7 -50 43 -20 41 -22 42 -64 39 -24 -2 -55 1 -69 6
-20 8 -9 11 61 17 47 4 112 13 145 20 73 16 107 18 99 6z m-590 -20 c-14 -14
-138 -62 -143 -56 -3 3 17 14 44 25 27 12 58 25 69 30 27 12 41 12 30 1z m116
-34 c-12 -15 -5 -27 16 -27 9 0 11 5 7 13 -4 6 8 -2 27 -19 82 -74 81 -74 210
-74 73 0 119 -4 119 -10 0 -24 103 -8 254 40 86 28 169 50 184 50 25 -1 23 -5
-38 -60 -60 -54 -63 -59 -36 -56 17 2 61 29 112 70 56 44 92 66 106 64 16 -2
-33 -47 -206 -188 l-227 -185 6 -37 c3 -21 1 -38 -4 -38 -11 0 -21 25 -21 55
0 19 -17 32 -96 74 -52 28 -100 49 -105 45 -5 -3 -8 0 -7 7 2 6 -3 14 -11 17
-9 3 -11 0 -6 -8 5 -9 4 -11 -4 -6 -6 4 -9 11 -6 16 7 12 -62 53 -76 44 -7 -4
-9 -3 -6 3 6 9 -99 90 -203 157 -41 26 -43 29 -24 37 12 4 25 12 29 18 3 6 9
11 12 11 3 0 0 -6 -6 -13z m-571 -12 c14 -16 10 -18 -14 -9 -9 3 -16 10 -16
15 0 14 16 11 30 -6z m3349 -28 c60 -31 41 -83 -45 -124 -60 -28 -64 -41 -42
-115 9 -30 9 -53 -1 -101 -7 -34 -13 -72 -14 -83 -1 -19 -6 -21 -37 -17 -29 4
-42 0 -68 -22 -39 -33 -35 -45 5 -18 41 29 62 34 84 22 31 -16 79 -99 79 -136
0 -34 -29 -73 -54 -73 -30 0 -86 32 -132 76 -27 25 -65 53 -84 61 l-35 15 42
17 c24 9 50 24 59 33 16 16 15 17 -10 24 -29 7 -130 0 -159 -12 -9 -3 -17 -2
-17 4 0 5 21 19 48 31 45 20 43 21 -22 5 -51 -12 -20 12 46 36 35 13 67 27 73
32 17 15 -17 28 -77 28 -32 0 -58 4 -58 9 0 11 59 64 110 97 26 17 37 31 33
41 -8 21 -77 11 -114 -16 -36 -26 -39 -26 -39 2 0 13 12 35 28 49 27 26 122
78 142 78 6 0 24 -14 40 -32 l29 -31 5 24 c3 13 7 41 11 61 3 20 11 39 18 41
25 11 133 6 156 -6z m-3251 -19 c16 -16 15 -55 -2 -61 -20 -8 -26 2 -26 40 0
35 8 41 28 21z m2792 -87 c0 -3 -5 -22 -11 -41 -6 -19 -10 -54 -10 -78 1 -40
-15 -82 -31 -82 -13 0 -9 42 13 120 13 49 17 76 10 78 -6 2 -9 8 -6 12 6 10
35 2 35 -9z m-2668 -70 c-4 -7 -62 51 -62 62 0 5 15 -6 33 -25 17 -18 31 -35
29 -37z m-141 36 c-13 -13 -26 -3 -16 12 3 6 11 8 17 5 6 -4 6 -10 -1 -17z
m2000 -11 c-35 -42 -256 -106 -366 -106 -86 0 -65 16 30 23 93 7 210 36 290
72 61 28 60 28 46 11z m-453 -13 c2 -8 -6 -13 -22 -13 -26 0 -40 12 -29 24 11
11 46 2 51 -11z m-1541 -13 c3 -11 11 -20 19 -20 7 0 16 -16 20 -35 9 -48 -1
-55 -16 -11 -6 20 -16 34 -20 31 -9 -6 -30 25 -30 44 0 19 22 12 27 -9z m1683
11 c0 -10 -50 -25 -58 -17 -3 3 6 10 19 15 31 13 39 13 39 2z m455 -1 c-13
-20 -97 -62 -192 -96 -98 -34 -146 -41 -171 -25 -9 5 17 14 71 24 49 9 129 34
189 60 57 25 104 45 106 46 2 1 0 -3 -3 -9z m595 5 c0 -3 -16 -12 -36 -20 -20
-8 -54 -31 -75 -50 -35 -32 -45 -35 -99 -35 -39 0 -82 -9 -126 -25 -37 -14
-68 -24 -70 -22 -2 2 30 17 71 35 55 24 89 32 133 32 50 0 62 4 83 26 29 33
119 77 119 59z m-1130 -24 c0 -5 -11 -11 -25 -13 -28 -6 -35 8 -7 15 28 8 32
7 32 -2z m-1862 -23 c17 -13 47 -36 67 -52 l36 -29 22 22 c31 28 47 27 47 -4
0 -14 9 -47 19 -75 17 -46 18 -50 3 -51 -14 -1 -14 -2 1 -6 34 -9 11 -27 -61
-49 -40 -12 -78 -27 -86 -33 -7 -6 -16 -7 -20 -3 -4 4 -7 2 -5 -3 4 -16 -23
-65 -37 -65 -7 0 -15 -6 -18 -12 -3 -7 -3 -2 0 12 3 14 17 51 31 82 16 36 23
66 19 81 -9 36 -44 75 -85 97 -47 24 -64 44 -57 68 14 43 78 53 124 20z m516
8 c19 -8 37 -20 41 -27 6 -8 4 -10 -5 -4 -7 4 -38 16 -69 26 -42 13 -49 18
-28 18 15 1 43 -5 61 -13z m167 -16 c54 0 66 -14 20 -23 -34 -7 -101 9 -101
25 0 5 7 7 16 4 9 -3 38 -6 65 -6z m-411 -34 c0 -13 3 -33 6 -43 5 -13 4 -15
-4 -8 -17 15 -27 75 -13 75 6 0 11 -11 11 -24z m1411 9 c0 -5 -12 -11 -26 -13
-18 -2 -25 1 -25 13 0 12 7 15 25 13 14 -2 26 -7 26 -13z m-635 -36 c3 -6 -5
-3 -20 6 -14 10 -26 19 -26 22 0 7 39 -17 46 -28z m1314 12 c0 -14 -34 -23
-54 -15 -14 5 -15 9 -4 15 18 12 58 11 58 0z m-1617 -8 c-13 -2 -33 -2 -45 0
-13 2 -3 4 22 4 25 0 35 -2 23 -4z m1077 -23 c0 -5 -7 -10 -15 -10 -8 0 -15 5
-15 10 0 6 7 10 15 10 8 0 15 -4 15 -10z m170 0 c-36 -12 -60 -12 -60 0 0 6
19 10 43 9 36 -1 38 -2 17 -9z m-263 -6 c-3 -3 -12 -4 -19 -1 -8 3 -5 6 6 6
11 1 17 -2 13 -5z m-140 -21 c7 -19 -44 -40 -60 -24 -9 10 -8 15 8 27 22 17
46 15 52 -3z m-604 -4 c59 -16 37 -22 -50 -14 -55 5 -72 10 -58 16 28 11 64
11 108 -2z m2027 -20 c-12 -40 -20 -49 -20 -21 0 26 10 52 20 52 5 0 5 -14 0
-31z m-2460 -10 c0 -5 -4 -9 -10 -9 -5 0 -10 7 -10 16 0 8 5 12 10 9 6 -3 10
-10 10 -16z m1070 6 c-7 -8 -17 -15 -22 -15 -6 0 -5 7 2 15 7 8 17 15 22 15 6
0 5 -7 -2 -15z m-1818 -25 c20 -35 31 -26 -90 -70 -35 -13 -59 -26 -55 -30 4
-4 45 -35 91 -70 45 -34 82 -69 82 -77 0 -12 -16 -50 -25 -61 -4 -5 -315 229
-315 237 0 7 257 100 280 100 8 1 23 -13 32 -29z m3913 -26 c71 -25 131 -46
132 -48 4 -3 -213 -176 -220 -176 -11 0 -29 72 -20 79 5 3 26 19 47 35 l38 30
-81 30 c-44 17 -81 34 -81 39 -1 4 1 21 5 38 8 35 -8 37 180 -27z m-1524 20
c-22 -10 -44 -12 -65 -7 -29 7 -27 8 24 14 30 3 60 6 65 7 6 0 -5 -6 -24 -14z
m139 6 c20 -6 21 -8 5 -8 -11 0 -31 4 -45 8 -20 6 -21 8 -5 8 11 0 31 -4 45
-8z m-506 -19 c2 -3 -21 -7 -52 -7 -57 -2 -57 -2 -22 10 33 12 66 11 74 -3z
m-264 -1 c-20 -13 -110 -13 -110 0 0 6 27 10 63 10 44 0 58 -3 47 -10z m138
-17 c-10 -2 -26 -2 -35 0 -10 3 -2 5 17 5 19 0 27 -2 18 -5z m1256 -44 c-27
-30 -38 -22 -12 9 13 16 25 25 27 20 1 -5 -5 -18 -15 -29z m-2389 11 c10 -11
16 -23 12 -26 -6 -7 -56 27 -57 39 0 14 27 7 45 -13z m1517 -2 c-7 -7 -12 -25
-12 -40 0 -60 -118 -140 -175 -118 -35 13 -22 33 16 25 28 -6 95 9 113 25 5 5
10 23 12 41 4 28 37 79 53 79 3 0 0 -5 -7 -12z m-1107 -48 c27 -27 44 -50 38
-50 -16 0 -93 71 -93 86 0 8 1 14 3 14 1 0 25 -22 52 -50z m-699 -18 c75 -75
159 -116 224 -108 36 4 24 -2 -55 -30 -68 -23 -86 -32 -57 -28 66 9 50 -1 -43
-26 -47 -13 -84 -25 -81 -27 2 -2 39 5 82 17 43 11 88 20 100 20 43 0 33 -16
-16 -29 -28 -7 -50 -17 -50 -21 0 -4 -10 -6 -22 -4 -21 4 -22 4 -3 -5 19 -9
19 -9 -5 -19 -14 -5 -29 -7 -34 -5 -4 3 -11 1 -15 -4 -3 -5 -93 -31 -199 -58
-210 -52 -217 -52 -209 7 2 15 -1 29 -6 31 -10 3 115 214 166 279 20 26 43 42
75 52 75 23 84 21 148 -42z m482 46 c-3 -7 -20 -13 -38 -13 -18 0 -35 6 -37
13 -3 8 8 12 37 12 29 0 40 -4 38 -12z m2212 -23 c-6 -8 -8 -20 -4 -26 4 -7 3
-9 -4 -5 -6 4 -16 -4 -23 -16 -12 -22 -11 -22 7 -8 10 8 4 -3 -15 -23 -37 -40
-64 -53 -83 -41 -8 5 11 29 58 71 68 62 88 77 64 48z m-632 -18 c7 3 19 -3 26
-13 12 -16 11 -20 -10 -30 -23 -13 -48 -13 -60 -2 -3 4 -13 4 -22 1 -11 -5
-14 -2 -9 10 4 10 1 17 -6 17 -7 0 -4 7 7 15 12 9 26 11 40 6 11 -5 27 -6 34
-4z m845 -26 c13 -5 55 -37 93 -70 66 -59 120 -86 149 -75 12 5 84 -63 94 -89
2 -6 -20 -8 -65 -5 -53 4 -86 14 -141 42 -41 20 -87 36 -106 36 -38 0 -82 -29
-92 -60 -4 -11 -11 -20 -17 -20 -11 0 -128 70 -128 77 0 9 34 69 48 86 8 9 12
17 8 17 -17 0 16 39 46 53 37 19 75 21 111 8z m-1598 -22 c0 -8 -6 -13 -12
-11 -7 1 -12 -4 -10 -10 1 -7 -4 -12 -10 -10 -7 1 -13 -2 -13 -6 0 -4 -9 -8
-20 -9 -29 -2 -25 10 12 41 34 27 53 29 53 5z m1201 -114 c25 -19 48 -19 41 0
-8 20 14 10 163 -73 l125 -70 -2 -42 c-4 -74 16 -69 -285 -69 -150 0 -282 4
-293 9 -11 5 -14 9 -7 9 6 1 12 12 12 25 l0 23 255 5 c187 3 259 8 268 17 10
10 6 11 -18 5 -54 -13 -540 -10 -557 3 -9 8 -47 12 -109 11 -101 -1 -126 3
-177 34 -45 27 -33 34 15 9 28 -14 72 -22 157 -28 120 -9 141 -4 134 28 -2 8
3 12 12 10 31 -7 45 -6 43 6 -3 13 15 30 37 35 8 2 19 7 25 11 18 15 110 55
126 56 8 1 24 -6 35 -14z m-2001 -60 c51 -24 85 -48 85 -58 0 -3 -8 -7 -17 -9
-11 -3 3 -11 32 -20 l50 -15 -40 -7 c-54 -10 -92 -26 -45 -19 19 2 49 -1 65
-8 l30 -13 -25 -4 c-14 -2 -30 -8 -37 -14 -8 -6 -15 -3 -22 9 -8 14 -14 16
-27 7 -26 -16 -27 -27 -3 -53 13 -14 18 -26 12 -30 -6 -3 -14 -21 -18 -40 -6
-30 -10 -33 -36 -27 -27 5 -28 4 -19 -20 13 -34 14 -31 -21 -50 -24 -12 -46
-14 -88 -10 -66 8 -52 -9 17 -20 25 -4 60 -20 88 -41 60 -46 74 -35 74 56 0
73 6 86 76 162 23 25 49 60 58 77 23 45 58 51 101 17 20 -14 46 -43 59 -63 29
-46 57 -71 84 -77 55 -10 135 -60 183 -113 40 -45 48 -50 35 -25 -18 36 -20
47 -7 39 4 -3 27 11 50 30 32 28 41 42 41 67 l0 32 -16 -30 c-23 -46 -31 -49
-38 -18 -4 15 -9 36 -12 45 -10 33 108 68 162 48 15 -6 51 -35 80 -65 39 -41
64 -58 99 -67 36 -10 50 -20 62 -43 8 -16 24 -40 36 -52 l20 -22 -28 -13 c-25
-11 -29 -10 -62 30 -26 31 -42 42 -63 42 -19 0 -44 13 -75 40 -26 22 -62 47
-81 55 -40 17 -44 41 -9 57 22 10 29 8 52 -13 l27 -24 -16 25 c-11 18 -26 26
-52 28 -42 4 -46 -2 -66 -118 -10 -62 -18 -80 -45 -107 -42 -42 -70 -42 -95 0
l-20 32 0 -28 c0 -33 48 -87 77 -87 12 1 8 5 -12 15 l-30 13 31 1 c33 1 61 25
87 76 l16 30 1 -58 c0 -48 -4 -62 -25 -82 -20 -20 -34 -25 -77 -25 -83 1 -114
38 -103 120 9 67 -4 86 -73 106 -80 23 -138 59 -169 105 -29 44 -51 49 -80 17
-36 -41 -41 -55 -10 -35 35 23 37 22 37 -11 0 -23 -6 -30 -34 -40 -19 -7 -46
-28 -60 -46 -14 -19 -43 -52 -66 -74 -22 -23 -40 -48 -40 -56 0 -21 -39 -46
-73 -46 -17 0 -38 10 -54 26 -14 15 -46 33 -70 41 -38 13 -73 44 -73 64 0 7
40 22 92 33 15 4 32 15 38 27 17 31 -9 62 -76 89 -66 27 -56 38 34 39 62 1
116 21 131 49 14 25 14 72 1 92 -7 10 -8 3 -5 -24 6 -46 -20 -82 -66 -90 -16
-4 -43 -9 -61 -12 l-32 -6 37 34 c38 36 47 65 24 74 -27 10 -129 -38 -182 -86
-83 -75 -114 -75 -135 -1 -27 98 1 162 73 164 37 1 87 -25 87 -46 0 -8 -4 -7
-10 3 -7 12 -10 8 -10 -14 l0 -29 -23 21 c-47 44 -73 16 -68 -75 2 -50 70 -12
121 66 21 34 45 56 73 69 83 39 96 40 162 7z m175 9 c30 -9 91 -19 135 -24
153 -16 190 -23 217 -43 24 -18 37 -19 130 -14 114 7 218 -1 196 -14 -12 -8
139 -5 297 7 42 3 66 1 60 -5 -6 -5 -107 -19 -225 -30 -118 -12 -216 -26 -218
-31 -2 -5 -31 -13 -65 -17 -60 -7 -61 -8 -22 -13 37 -5 34 -7 -42 -19 -107
-17 -177 -8 -251 32 -61 33 -143 91 -92 65 20 -10 85 -19 76 -11 -1 1 -60 31
-131 67 -72 36 -128 65 -125 65 3 1 30 -6 60 -15z m467 -37 c3 -4 3 -13 0 -22
-8 -20 -76 -20 -103 0 -16 13 -17 16 -4 25 15 11 95 8 107 -3z m2153 -98 c-53
-48 -116 -93 -80 -56 27 27 124 107 129 107 3 -1 -19 -24 -49 -51z m-1094 -25
c24 -91 12 -112 -28 -49 -13 19 -30 35 -38 35 -10 1 -4 10 15 25 37 30 26 32
-29 4 -25 -12 -56 -42 -81 -76 -43 -60 -155 -156 -208 -177 -41 -17 -155 -29
-190 -21 -17 5 -35 22 -52 52 l-25 45 28 -5 c15 -3 45 -8 67 -12 63 -10 19 12
-67 34 -77 19 -77 21 -3 46 l20 7 -20 8 c-11 5 -15 9 -9 9 6 1 9 12 7 26 -4
20 0 25 23 31 34 9 90 9 119 1 11 -3 23 -6 28 -6 4 -1 7 -10 7 -20 0 -11 5
-23 10 -26 6 -3 10 3 10 14 0 36 10 48 36 43 15 -3 24 -11 24 -23 0 -22 31
-89 41 -89 4 0 4 12 0 28 -10 36 -4 52 20 52 11 0 18 4 15 8 -12 20 212 96
258 88 5 -1 15 -24 22 -52z m-2167 -79 c27 -65 43 -81 68 -66 17 10 17 10 1
11 -12 0 -18 8 -18 25 0 24 2 24 48 18 60 -8 62 -10 23 -26 l-33 -14 58 -5
c62 -6 184 -39 184 -49 0 -3 -23 -9 -51 -12 -29 -4 -54 -8 -56 -11 -2 -2 8
-21 22 -42 28 -41 58 -63 87 -64 10 0 31 -13 48 -30 25 -25 39 -30 77 -30 46
0 93 27 93 54 0 6 17 27 37 48 26 27 46 38 66 38 40 0 237 -29 294 -44 44 -11
48 -15 55 -51 5 -22 18 -50 30 -62 26 -28 91 -47 130 -39 39 8 93 71 90 105
-3 23 1 26 35 30 86 10 130 4 223 -30 79 -29 97 -40 104 -62 18 -50 -32 -79
-189 -109 -100 -19 -446 -16 -610 6 -376 49 -591 101 -715 173 -75 44 -217
181 -226 219 -8 31 13 73 41 84 33 12 61 -9 84 -65z m528 60 c0 -8 -4 -15 -9
-15 -10 0 -11 14 -1 23 9 10 10 9 10 -8z m860 -41 c-3 -3 -12 -4 -19 -1 -8 3
-5 6 6 6 11 1 17 -2 13 -5z m133 -18 c0 -3 -4 -8 -10 -11 -5 -3 -10 -1 -10 4
0 6 5 11 10 11 6 0 10 -2 10 -4z m-95 -24 c-3 -3 -11 0 -18 7 -9 10 -8 11 6 5
10 -3 15 -9 12 -12z m1365 0 c0 -13 -51 -85 -89 -125 -35 -38 -134 -111 -166
-123 -9 -4 15 23 53 60 38 36 84 93 103 125 20 35 42 62 54 64 35 7 45 7 45
-1z m-3170 -154 c0 -51 -5 -100 -10 -108 -7 -10 -10 19 -10 93 0 65 4 107 10
107 6 0 10 -37 10 -92z m3450 -28 c0 -73 -4 -120 -10 -120 -6 0 -10 47 -10
120 0 73 4 120 10 120 6 0 10 -47 10 -120z m-3185 -319 c-14 -13 -85 -34 -92
-27 -3 3 5 9 18 14 13 5 31 12 39 15 24 9 45 8 35 -2z m-130 -40 c-8 -13 -35
-15 -35 -2 0 5 8 11 18 13 21 5 26 2 17 -11z m762 -147 c-3 -3 -12 -4 -19 -1
-8 3 -5 6 6 6 11 1 17 -2 13 -5z m-82 -19 c-16 -8 -37 -14 -45 -14 -8 0 -1 7
15 14 17 8 37 14 45 14 8 0 2 -7 -15 -14z m1988 -21 c60 -20 106 -38 104 -40
-2 -2 -51 11 -109 30 -58 19 -114 36 -124 39 -17 4 -17 5 1 6 11 0 69 -15 128
-35z m142 -54 c3 -5 1 -10 -4 -10 -6 0 -11 5 -11 10 0 6 2 10 4 10 3 0 8 -4
11 -10z"/>
<path d="M2388 4559 c-27 -15 -22 -47 7 -55 53 -13 105 21 75 49 -10 9 -11 9
-5 -2 10 -18 -12 -31 -52 -31 -38 0 -42 12 -11 34 25 18 13 21 -14 5z"/>
<path d="M2672 4558 c-17 -22 4 -55 38 -61 38 -8 70 7 70 33 0 18 -36 47 -47
37 -2 -3 5 -8 16 -12 28 -9 26 -33 -3 -41 -34 -8 -69 13 -63 37 6 22 3 24 -11
7z"/>
<path d="M2493 4500 c-51 -31 -39 -73 21 -75 20 -1 34 0 31 3 -2 3 5 16 15 30
11 13 20 33 20 43 0 26 -45 25 -87 -1z m77 0 c0 -19 -40 -50 -65 -50 -34 0
-32 25 3 44 31 18 62 20 62 6z"/>
<path d="M2605 4470 c-12 -4 -27 -15 -34 -24 -12 -14 -11 -19 4 -36 26 -29 62
-25 97 10 25 25 28 33 18 45 -13 16 -53 19 -85 5z m75 -8 c0 -19 -49 -53 -72
-50 -30 4 -30 29 2 45 28 14 70 17 70 5z"/>
<path d="M2255 4440 c-3 -6 -17 -7 -30 -4 -29 7 -75 -16 -109 -57 -29 -35 -30
-56 -4 -73 14 -8 23 -5 49 19 38 37 113 125 106 125 -3 0 -9 -5 -12 -10z m-35
-19 c0 -15 -81 -101 -96 -101 -17 0 -18 23 -3 51 18 34 99 75 99 50z"/>
<path d="M2443 4358 c-12 -6 -29 -26 -38 -45 -16 -32 -16 -36 1 -54 24 -26 49
-24 73 7 23 30 27 74 9 92 -14 14 -16 14 -45 0z m47 -34 c0 -24 -46 -68 -63
-61 -25 9 -21 44 8 73 21 21 29 23 40 14 8 -7 15 -18 15 -26z"/>
<path d="M2699 4349 c-34 -15 -48 -28 -52 -45 -2 -13 -1 -24 3 -24 3 0 4 -15
1 -32 l-5 -33 -6 30 c-6 35 -23 40 -79 25 -50 -13 -66 -38 -44 -69 12 -18 23
-22 57 -19 33 2 40 0 37 -12 -15 -53 -12 -79 8 -89 25 -14 52 -2 75 31 23 32
20 70 -6 93 l-23 20 30 6 30 7 -27 1 c-16 1 -28 7 -28 15 0 8 8 12 23 9 38 -7
95 22 103 51 7 30 -10 56 -35 56 -9 -1 -37 -10 -62 -21z m76 -15 c0 -28 -67
-59 -96 -44 -20 11 -20 13 -5 28 18 19 75 42 91 38 6 -2 10 -11 10 -22z m-145
-83 c0 -17 -52 -51 -77 -51 -31 0 -42 29 -18 46 21 16 95 19 95 5z m14 -56
c-10 -7 -22 -11 -27 -8 -12 7 0 19 23 20 21 2 21 1 4 -12z m46 -28 c0 -31 -27
-67 -51 -67 -30 0 -29 45 3 73 28 24 48 21 48 -6z"/>
<path d="M2810 4350 c0 -5 5 -10 11 -10 5 0 7 5 4 10 -3 6 -8 10 -11 10 -2 0
-4 -4 -4 -10z"/>
<path d="M2995 4340 c3 -5 16 -10 28 -10 18 0 19 2 7 10 -20 13 -43 13 -35 0z"/>
<path d="M2018 4303 c7 -3 16 -2 19 1 4 3 -2 6 -13 5 -11 0 -14 -3 -6 -6z"/>
<path d="M2267 4290 c-31 -25 -34 -42 -11 -65 19 -19 49 -12 82 18 53 49 -13
93 -71 47z m78 0 c7 -12 -39 -60 -58 -60 -14 0 -37 19 -37 32 0 10 51 37 72
38 9 0 20 -4 23 -10z"/>
<path d="M1980 4285 c-15 -19 -4 -52 21 -60 27 -9 76 3 83 21 7 19 -2 41 -20
48 -11 4 -12 2 -1 -15 10 -16 9 -21 -3 -29 -39 -25 -96 4 -70 35 7 8 10 15 7
15 -2 0 -10 -7 -17 -15z"/>
<path d="M2972 4231 c-39 -36 -40 -60 -7 -89 29 -26 85 -30 85 -7 0 8 -4 15
-10 15 -5 0 -10 -4 -10 -10 0 -5 -7 -10 -15 -10 -10 0 -7 7 10 24 26 26 40 67
31 91 -9 24 -49 17 -84 -14z m68 -6 c0 -32 -43 -77 -64 -69 -28 11 -19 53 17
74 42 26 47 25 47 -5z"/>
<path d="M2110 4229 c-60 -24 -77 -66 -38 -93 20 -14 25 -14 51 2 35 21 62 64
54 86 -7 18 -30 20 -67 5z m55 -9 c7 -11 -56 -80 -74 -80 -6 0 -15 8 -20 19
-12 21 6 43 49 60 33 13 38 13 45 1z"/>
<path d="M2898 4173 c7 -3 16 -2 19 1 4 3 -2 6 -13 5 -11 0 -14 -3 -6 -6z"/>
<path d="M2840 4141 c0 -10 25 -21 48 -21 12 1 10 5 -8 15 -29 17 -40 18 -40
6z"/>
<path d="M2199 4103 c-13 -16 -12 -17 4 -4 9 7 17 15 17 17 0 8 -8 3 -21 -13z"/>
<path d="M1991 4025 c-33 -38 -39 -63 -19 -83 16 -16 53 -15 67 2 20 24 31 77
20 97 -14 28 -33 23 -68 -16z m55 -29 c-8 -44 -41 -66 -63 -43 -14 14 -13 19
6 50 37 60 69 55 57 -7z"/>
<path d="M2986 3998 c-32 -45 -11 -108 35 -108 28 0 56 62 43 98 -13 36 -56
42 -78 10z m62 -19 c3 -30 -29 -76 -46 -65 -16 10 -15 69 0 84 19 19 43 10 46
-19z"/>
<path d="M2566 3980 c-29 -36 -33 -71 -10 -94 21 -21 40 -20 65 5 29 29 24
113 -7 117 -14 2 -30 -8 -48 -28z m54 -17 c0 -40 -24 -75 -46 -66 -21 8 -17
54 8 80 30 32 38 29 38 -14z"/>
<path d="M2695 3836 c-46 -46 -21 -103 39 -90 34 7 66 31 65 48 0 6 -3 6 -6
-1 -10 -26 -20 -12 -19 25 1 33 -2 37 -26 40 -19 2 -36 -5 -53 -22z m65 -10
c0 -33 -32 -71 -53 -63 -36 14 -7 87 35 87 12 0 18 -7 18 -24z"/>
<path d="M2166 3818 c-9 -12 -16 -34 -16 -49 0 -31 33 -64 55 -55 20 7 35 48
28 77 -13 52 -42 63 -67 27z m49 -38 c0 -35 -4 -45 -17 -48 -27 -5 -45 41 -29
74 19 43 46 28 46 -26z"/>
<path d="M3018 3773 c12 -2 30 -2 40 0 9 3 -1 5 -23 4 -22 0 -30 -2 -17 -4z"/>
<path d="M3002 3747 c-30 -36 -25 -99 9 -117 26 -15 69 28 69 68 0 47 -52 80
-78 49z m46 -9 c17 -17 15 -49 -4 -76 -13 -18 -19 -21 -30 -11 -25 21 -13 99
16 99 3 0 11 -5 18 -12z"/>
<path d="M3605 3460 c-3 -5 1 -10 9 -10 9 0 16 5 16 10 0 6 -4 10 -9 10 -6 0
-13 -4 -16 -10z"/>
<path d="M3530 3436 c0 -2 9 -6 20 -9 11 -3 20 -1 20 4 0 5 -9 9 -20 9 -11 0
-20 -2 -20 -4z"/>
<path d="M4750 3429 c-19 -12 -36 -22 -37 -23 -1 0 -4 -13 -8 -29 -10 -38 8
-35 58 12 29 27 39 43 32 50 -7 7 -21 4 -45 -10z m30 -2 c0 -2 -13 -16 -30
-32 -16 -16 -30 -24 -30 -17 0 13 39 52 52 52 4 0 8 -1 8 -3z"/>
<path d="M4725 3180 c3 -5 10 -10 16 -10 5 0 9 5 9 10 0 6 -7 10 -16 10 -8 0
-12 -4 -9 -10z"/>
<path d="M1580 3320 c-8 -5 -10 -10 -5 -10 6 0 17 5 25 10 8 5 11 10 5 10 -5
0 -17 -5 -25 -10z"/>
<path d="M1629 3263 l-24 -28 28 24 c25 23 32 31 24 31 -2 0 -14 -12 -28 -27z"/>
<path d="M1759 3243 l-24 -28 28 24 c25 23 32 31 24 31 -2 0 -14 -12 -28 -27z"/>
<path d="M1998 3283 c7 -3 16 -2 19 1 4 3 -2 6 -13 5 -11 0 -14 -3 -6 -6z"/>
<path d="M1810 3052 c0 -6 -10 -20 -22 -32 -12 -11 -17 -20 -10 -20 14 0 47
48 38 57 -3 3 -6 1 -6 -5z"/>
<path d="M3373 3203 c9 -2 25 -2 35 0 9 3 1 5 -18 5 -19 0 -27 -2 -17 -5z"/>
<path d="M2645 3113 c6 -25 44 -68 52 -59 7 6 -39 86 -49 86 -6 0 -7 -11 -3
-27z"/>
<path d="M4772 2648 c-18 -18 -15 -67 4 -75 21 -8 35 15 32 51 -3 33 -18 42
-36 24z m28 -17 c0 -23 -16 -36 -25 -21 -9 14 1 40 15 40 5 0 10 -9 10 -19z"/>
<path d="M4823 2320 c2 -21 7 -25 32 -25 23 0 31 5 33 23 2 12 -1 22 -6 22 -5
0 -9 -8 -8 -17 2 -27 -33 -28 -44 -1 l-10 23 3 -25z"/>
<path d="M1478 2583 c12 -10 32 -32 42 -48 11 -17 20 -25 20 -19 0 17 -39 63
-63 75 -21 10 -21 10 1 -8z"/>
<path d="M1698 2153 c7 -3 16 -2 19 1 4 3 -2 6 -13 5 -11 0 -14 -3 -6 -6z"/>
<path d="M1478 2113 c7 -3 16 -2 19 1 4 3 -2 6 -13 5 -11 0 -14 -3 -6 -6z"/>
<path d="M3746 2382 c-3 -6 -1 -14 5 -17 14 -9 20 -2 10 14 -6 8 -11 9 -15 3z"/>
<path d="M4536 2315 c-30 -23 -15 -25 24 -5 26 14 30 19 15 19 -11 0 -29 -6
-39 -14z"/>
<path d="M4620 2260 c0 -11 2 -20 4 -20 2 0 6 9 9 20 3 11 1 20 -4 20 -5 0 -9
-9 -9 -20z"/>
<path d="M4512 2190 c0 -14 2 -19 5 -12 2 6 2 18 0 25 -3 6 -5 1 -5 -13z"/>
<path d="M4170 2170 c-8 -5 -11 -12 -8 -16 10 -9 38 3 38 16 0 12 -10 13 -30
0z"/>
<path d="M2969 1673 c-13 -16 -12 -17 4 -4 9 7 17 15 17 17 0 8 -8 3 -21 -13z"/>
<path d="M2670 2030 c8 -5 20 -10 25 -10 6 0 3 5 -5 10 -8 5 -19 10 -25 10 -5
0 -3 -5 5 -10z"/>
<path d="M2873 2013 c9 -2 25 -2 35 0 9 3 1 5 -18 5 -19 0 -27 -2 -17 -5z"/>
<path d="M2723 1983 c9 -2 25 -2 35 0 9 3 1 5 -18 5 -19 0 -27 -2 -17 -5z"/>
<path d="M3997 4956 c-9 -22 19 -42 37 -26 19 15 10 40 -14 40 -10 0 -20 -6
-23 -14z"/>
<path d="M2411 4914 c-19 -8 -32 -17 -29 -20 8 -7 86 14 93 26 9 15 -25 11
-64 -6z"/>
<path d="M4170 4870 c0 -5 5 -10 10 -10 6 0 10 5 10 10 0 6 -4 10 -10 10 -5 0
-10 -4 -10 -10z"/>
<path d="M1760 4625 c-18 -21 -8 -50 19 -53 31 -5 45 11 37 42 -7 29 -36 35
-56 11z"/>
<path d="M1657 4494 c-13 -13 -7 -52 8 -58 27 -10 46 5 43 33 -3 26 -35 41
-51 25z"/>
<path d="M5060 4190 c0 -11 7 -20 15 -20 8 0 15 9 15 20 0 11 -7 20 -15 20 -8
0 -15 -9 -15 -20z"/>
<path d="M5022 4118 c6 -18 28 -21 28 -4 0 9 -7 16 -16 16 -9 0 -14 -5 -12
-12z"/>
<path d="M1327 3987 c-3 -8 1 -23 8 -34 11 -14 18 -16 32 -7 28 17 23 48 -8
52 -16 2 -29 -3 -32 -11z"/>
<path d="M1147 3974 c-8 -8 1 -24 14 -24 5 0 9 7 9 15 0 15 -12 20 -23 9z"/>
<path d="M1132 3908 c-15 -15 -15 -61 0 -76 7 -7 21 -12 33 -12 29 0 45 19 45
52 0 40 -51 63 -78 36z"/>
<path d="M4854 3829 c-3 -6 0 -17 7 -25 18 -17 44 -2 36 20 -7 18 -33 21 -43
5z"/>
<path d="M1120 3774 c0 -9 7 -14 17 -12 25 5 28 28 4 28 -12 0 -21 -6 -21 -16z"/>
<path d="M4905 3736 c-28 -43 18 -91 63 -67 26 14 33 45 15 70 -19 29 -59 27
-78 -3z"/>
<path d="M5243 3615 c-14 -11 -16 -18 -7 -32 17 -28 48 -23 52 8 4 32 -18 43
-45 24z"/>
<path d="M5312 3038 c-7 -7 -12 -24 -12 -38 0 -50 44 -66 80 -30 11 11 20 25
20 30 0 17 -39 50 -58 50 -10 0 -23 -5 -30 -12z"/>
<path d="M5410 3040 c0 -5 5 -10 10 -10 6 0 10 5 10 10 0 6 -4 10 -10 10 -5 0
-10 -4 -10 -10z"/>
<path d="M5412 2939 c2 -6 8 -10 13 -10 5 0 11 4 13 10 2 6 -4 11 -13 11 -9 0
-15 -5 -13 -11z"/>
<path d="M5401 2606 c14 -13 129 -53 119 -41 -6 7 -32 21 -57 29 -45 15 -71
20 -62 12z"/>
<path d="M745 2570 c-3 -5 1 -10 9 -10 9 0 16 5 16 10 0 6 -4 10 -9 10 -6 0
-13 -4 -16 -10z"/>
<path d="M5359 2233 c-13 -16 -12 -17 4 -4 16 13 21 21 13 21 -2 0 -10 -8 -17
-17z"/>
<path d="M5309 2163 c-13 -16 -12 -17 4 -4 16 13 21 21 13 21 -2 0 -10 -8 -17
-17z"/>
<path d="M5224 2138 c-27 -33 -27 -33 -5 -36 29 -5 51 15 51 44 0 33 -13 30
-46 -8z"/>
<path d="M905 1998 c-32 -17 -45 -39 -45 -76 0 -46 16 -71 56 -88 29 -12 39
-12 68 0 19 8 39 23 45 34 43 81 -46 173 -124 130z"/>
<path d="M5270 1860 c0 -5 5 -10 11 -10 5 0 7 5 4 10 -3 6 -8 10 -11 10 -2 0
-4 -4 -4 -10z"/>
<path d="M5102 1808 c-28 -28 -7 -78 33 -78 27 0 45 18 45 45 0 27 -18 45 -45
45 -12 0 -26 -5 -33 -12z"/>
<path d="M1167 1803 c-15 -14 -6 -53 14 -63 26 -14 49 3 49 35 0 28 -44 48
-63 28z"/>
<path d="M1060 1730 c8 -5 20 -10 25 -10 6 0 3 5 -5 10 -8 5 -19 10 -25 10 -5
0 -3 -5 5 -10z"/>
<path d="M1190 1626 c0 -9 5 -16 10 -16 6 0 10 4 10 9 0 6 -4 13 -10 16 -5 3
-10 -1 -10 -9z"/>
<path d="M1262 1624 c4 -21 22 -23 26 -1 2 10 -3 17 -13 17 -10 0 -15 -6 -13
-16z"/>
<path d="M1212 1554 c-27 -19 -28 -48 -2 -74 25 -25 45 -25 71 1 19 19 19 51
0 70 -16 16 -48 18 -69 3z"/>
<path d="M1357 1384 c-9 -10 2 -24 19 -24 8 0 14 7 14 15 0 15 -21 21 -33 9z"/>
<path d="M2000 1005 c0 -21 28 -31 43 -16 9 9 8 14 -3 21 -22 14 -40 12 -40
-5z"/>
<path d="M2824 1009 c-9 -15 12 -33 30 -26 9 4 16 13 16 22 0 17 -35 21 -46 4z"/>
<path d="M1793 874 c-3 -8 -1 -20 5 -26 16 -16 42 -2 42 22 0 24 -38 28 -47 4z"/>
</g>
</svg>
